# xmcd
#
# Track frame offsets: 
#        150
#        16372
#        32663
#        50359
#        62814
#        82258
#        101214
#        120722
#        140282
#        160652
#        180515
#        196642
#
# Disc length: 2749 seconds
#
# Revision: 0
# Processed by: cddbd v1.5.2PL0 Copyright (c) Steve Scherf et al.
# Submitted via: ExactAudioCopyFreeDBPlugin 1.0
#
DISCID=9a0abb0c
DTITLE=Pino Daniele - BOX-COLLECTION: PINO DANIELE
DYEAR=2013
DGENRE=Blues
TTITLE0=Quando
TTITLE1=Yes I know my way
TTITLE2='O ssaje comme fa 'o core
TTITLE3=Resta...Resta cu' mme'
TTITLE4=Gente distratta
TTITLE5=Tutta 'nata storia
TTITLE6=Che Dio ti benedica
TTITLE7=Amore senza fine
TTITLE8=Bambina
TTITLE9=Cosa Penserai di me
TTITLE10=Io per lei
TTITLE11='Na tazzuliella 'e caffè (Live)
EXTD=
EXTT0=
EXTT1=
EXTT2=
EXTT3=
EXTT4=
EXTT5=
EXTT6=
EXTT7=
EXTT8=
EXTT9=
EXTT10=
EXTT11=
PLAYORDER=
